<mxfile host="Electron" agent="Mozilla/5.0 (Windows NT 10.0; Win64; x64) AppleWebKit/537.36 (KHTML, like Gecko) draw.io/27.0.9 Chrome/134.0.6998.205 Electron/35.4.0 Safari/537.36" version="27.0.9">
  <diagram name="Page-1" id="EhcB3PH-zPmKsm_EDyx8">
    <mxGraphModel dx="2276" dy="859" grid="1" gridSize="10" guides="1" tooltips="1" connect="1" arrows="1" fold="1" page="1" pageScale="1" pageWidth="850" pageHeight="1100" math="0" shadow="0">
      <root>
        <mxCell id="0" />
        <mxCell id="1" parent="0" />
        <mxCell id="6CnsqeC-LUTwVc9rVep_-9" value="" style="rounded=1;whiteSpace=wrap;html=1;fillColor=#dae8fc;gradientColor=#7ea6e0;strokeColor=#6c8ebf;" parent="1" vertex="1">
          <mxGeometry x="200" y="280" width="360" height="200" as="geometry" />
        </mxCell>
        <mxCell id="6CnsqeC-LUTwVc9rVep_-6" value="TransMorph" style="text;html=1;align=center;verticalAlign=middle;whiteSpace=wrap;rounded=0;" parent="1" vertex="1">
          <mxGeometry x="320" y="250" width="120" height="30" as="geometry" />
        </mxCell>
        <mxCell id="6CnsqeC-LUTwVc9rVep_-7" value="&lt;div&gt;&lt;font color=&quot;#1a1a1a&quot;&gt;Transformer&lt;/font&gt;&lt;/div&gt;&lt;font color=&quot;#1a1a1a&quot;&gt;Encoder&lt;/font&gt;" style="rounded=1;whiteSpace=wrap;html=1;fillColor=#f8cecc;strokeColor=#b85450;gradientColor=#ea6b66;" parent="1" vertex="1">
          <mxGeometry x="240" y="320" width="120" height="120" as="geometry" />
        </mxCell>
        <mxCell id="6CnsqeC-LUTwVc9rVep_-32" style="edgeStyle=none;curved=1;rounded=0;orthogonalLoop=1;jettySize=auto;html=1;entryX=1;entryY=0.5;entryDx=0;entryDy=0;fontSize=12;startSize=8;endSize=8;" parent="1" target="6CnsqeC-LUTwVc9rVep_-22" edge="1">
          <mxGeometry relative="1" as="geometry">
            <mxPoint x="360" y="870" as="sourcePoint" />
          </mxGeometry>
        </mxCell>
        <mxCell id="Aeha082FOGOlSdF__lET-4" style="edgeStyle=orthogonalEdgeStyle;rounded=1;orthogonalLoop=1;jettySize=auto;html=1;exitX=1;exitY=0.25;exitDx=0;exitDy=0;entryX=0;entryY=0.75;entryDx=0;entryDy=0;curved=0;" parent="1" source="6CnsqeC-LUTwVc9rVep_-10" target="6CnsqeC-LUTwVc9rVep_-7" edge="1">
          <mxGeometry relative="1" as="geometry" />
        </mxCell>
        <mxCell id="6CnsqeC-LUTwVc9rVep_-10" value="&lt;font style=&quot;color: rgb(26, 26, 26);&quot;&gt;Main Image&lt;/font&gt;&lt;div&gt;&lt;font color=&quot;#1a1a1a&quot;&gt;&lt;br&gt;&lt;/font&gt;&lt;div&gt;&lt;font face=&quot;Cambria&quot; style=&quot;color: rgb(26, 26, 26); font-size: 16px;&quot;&gt;&lt;i style=&quot;&quot;&gt;I&lt;sub style=&quot;&quot;&gt;main&lt;/sub&gt;&lt;/i&gt;&lt;/font&gt;&lt;/div&gt;&lt;/div&gt;" style="rounded=1;whiteSpace=wrap;html=1;fillColor=#fff2cc;gradientColor=#ffd966;strokeColor=#d6b656;" parent="1" vertex="1">
          <mxGeometry x="-120" y="810" width="120" height="120" as="geometry" />
        </mxCell>
        <mxCell id="6CnsqeC-LUTwVc9rVep_-11" value="&lt;font style=&quot;color: rgb(26, 26, 26);&quot;&gt;Reference Image&lt;/font&gt;&lt;div&gt;&lt;font color=&quot;#1a1a1a&quot;&gt;&lt;br&gt;&lt;/font&gt;&lt;div&gt;&lt;font face=&quot;Cambria&quot; style=&quot;color: rgb(26, 26, 26);&quot;&gt;&lt;i&gt;&lt;font style=&quot;font-size: 16px;&quot;&gt;I&lt;/font&gt;&lt;sub&gt;&lt;font style=&quot;font-size: 16px;&quot;&gt;ref&lt;/font&gt;&amp;nbsp;&lt;/sub&gt;&lt;/i&gt;&lt;/font&gt;&lt;/div&gt;&lt;/div&gt;" style="rounded=1;whiteSpace=wrap;html=1;fillColor=#fff2cc;gradientColor=#ffd966;strokeColor=#d6b656;" parent="1" vertex="1">
          <mxGeometry x="-120" y="320" width="120" height="120" as="geometry" />
        </mxCell>
        <mxCell id="6CnsqeC-LUTwVc9rVep_-13" value="" style="endArrow=classic;html=1;rounded=1;fontSize=12;startSize=8;endSize=8;curved=0;exitX=1;exitY=0.5;exitDx=0;exitDy=0;" parent="1" source="UFdSs73jD7x_iKg_s8AN-1" target="6CnsqeC-LUTwVc9rVep_-15" edge="1">
          <mxGeometry width="50" height="50" relative="1" as="geometry">
            <mxPoint x="520" y="380" as="sourcePoint" />
            <mxPoint x="610" y="379.8" as="targetPoint" />
            <Array as="points" />
          </mxGeometry>
        </mxCell>
        <mxCell id="6CnsqeC-LUTwVc9rVep_-15" value="&lt;font&gt;&lt;font color=&quot;#1a1a1a&quot;&gt;Registered&lt;/font&gt;&lt;br&gt;&lt;/font&gt;&lt;div&gt;&lt;font style=&quot;color: rgb(26, 26, 26);&quot;&gt;Ref Image&lt;br&gt;&lt;/font&gt;&lt;/div&gt;&lt;div&gt;&lt;font style=&quot;color: rgb(26, 26, 26);&quot;&gt;&lt;br&gt;&lt;/font&gt;&lt;/div&gt;&lt;div&gt;&lt;font face=&quot;Cambria&quot; style=&quot;color: rgb(26, 26, 26); font-size: 16px;&quot;&gt;&lt;i style=&quot;&quot;&gt;I&lt;sub style=&quot;&quot;&gt;reg&lt;/sub&gt;&lt;/i&gt;&lt;/font&gt;&lt;/div&gt;" style="rounded=1;whiteSpace=wrap;html=1;fillColor=#fff2cc;gradientColor=#ffd966;strokeColor=#d6b656;" parent="1" vertex="1">
          <mxGeometry x="600" y="320" width="120" height="120" as="geometry" />
        </mxCell>
        <mxCell id="6CnsqeC-LUTwVc9rVep_-20" value="" style="endArrow=classic;html=1;rounded=0;fontSize=12;startSize=8;endSize=8;curved=1;exitX=1;exitY=0.5;exitDx=0;exitDy=0;" parent="1" edge="1">
          <mxGeometry width="50" height="50" relative="1" as="geometry">
            <mxPoint y="350" as="sourcePoint" />
            <mxPoint x="240" y="350" as="targetPoint" />
            <Array as="points">
              <mxPoint x="120" y="350" />
            </Array>
          </mxGeometry>
        </mxCell>
        <mxCell id="6CnsqeC-LUTwVc9rVep_-22" value="&lt;font color=&quot;#1a1a1a&quot;&gt;Image&lt;br&gt;Encoder&lt;/font&gt;" style="rounded=1;whiteSpace=wrap;html=1;fillColor=#f8cecc;gradientColor=#ea6b66;strokeColor=#b85450;" parent="1" vertex="1">
          <mxGeometry x="240" y="810" width="120" height="120" as="geometry" />
        </mxCell>
        <mxCell id="6CnsqeC-LUTwVc9rVep_-23" value="" style="endArrow=classic;html=1;rounded=1;fontSize=12;startSize=8;endSize=8;curved=0;exitX=1;exitY=0.5;exitDx=0;exitDy=0;entryX=0;entryY=0.5;entryDx=0;entryDy=0;" parent="1" edge="1">
          <mxGeometry width="50" height="50" relative="1" as="geometry">
            <mxPoint y="900" as="sourcePoint" />
            <mxPoint x="240" y="900" as="targetPoint" />
            <Array as="points" />
          </mxGeometry>
        </mxCell>
        <mxCell id="6CnsqeC-LUTwVc9rVep_-24" value="&lt;font color=&quot;#1a1a1a&quot;&gt;Image&lt;br&gt;Encoder&lt;/font&gt;" style="rounded=1;whiteSpace=wrap;html=1;fillColor=#f8cecc;gradientColor=#ea6b66;strokeColor=#b85450;" parent="1" vertex="1">
          <mxGeometry x="240" y="650" width="120" height="120" as="geometry" />
        </mxCell>
        <mxCell id="6CnsqeC-LUTwVc9rVep_-25" value="" style="endArrow=classic;html=1;rounded=1;fontSize=12;startSize=8;endSize=8;curved=0;exitX=1;exitY=0.5;exitDx=0;exitDy=0;entryX=0;entryY=0.5;entryDx=0;entryDy=0;" parent="1" source="6CnsqeC-LUTwVc9rVep_-15" target="6CnsqeC-LUTwVc9rVep_-24" edge="1">
          <mxGeometry width="50" height="50" relative="1" as="geometry">
            <mxPoint x="1020" y="440" as="sourcePoint" />
            <mxPoint x="160" y="620" as="targetPoint" />
            <Array as="points">
              <mxPoint x="810" y="380" />
              <mxPoint x="810" y="450" />
              <mxPoint x="810" y="520" />
              <mxPoint x="590" y="520" />
              <mxPoint x="160" y="520" />
              <mxPoint x="160" y="710" />
            </Array>
          </mxGeometry>
        </mxCell>
        <mxCell id="6CnsqeC-LUTwVc9rVep_-28" value="" style="edgeStyle=none;curved=1;rounded=0;orthogonalLoop=1;jettySize=auto;html=1;fontSize=12;startSize=8;endSize=8;" parent="1" source="6CnsqeC-LUTwVc9rVep_-26" target="6CnsqeC-LUTwVc9rVep_-27" edge="1">
          <mxGeometry relative="1" as="geometry" />
        </mxCell>
        <mxCell id="6CnsqeC-LUTwVc9rVep_-26" value="&lt;font color=&quot;#1a1a1a&quot;&gt;Text Question&lt;/font&gt;&lt;br&gt;&lt;div&gt;&lt;font color=&quot;#1a1a1a&quot;&gt;&lt;br&gt;&lt;/font&gt;&lt;div&gt;&lt;font face=&quot;Cambria&quot; color=&quot;#1a1a1a&quot;&gt;&lt;span style=&quot;font-size: 16px;&quot;&gt;&lt;i&gt;Q&lt;/i&gt;&lt;/span&gt;&lt;/font&gt;&lt;/div&gt;&lt;/div&gt;" style="rounded=1;whiteSpace=wrap;html=1;fillColor=#fff2cc;gradientColor=#ffd966;strokeColor=#d6b656;" parent="1" vertex="1">
          <mxGeometry x="-120" y="970" width="120" height="120" as="geometry" />
        </mxCell>
        <mxCell id="6CnsqeC-LUTwVc9rVep_-27" value="&lt;font color=&quot;#1a1a1a&quot;&gt;Text&lt;br&gt;Encoder&lt;/font&gt;" style="rounded=1;whiteSpace=wrap;html=1;fillColor=#f8cecc;gradientColor=#ea6b66;strokeColor=#b85450;" parent="1" vertex="1">
          <mxGeometry x="240" y="970" width="120" height="120" as="geometry" />
        </mxCell>
        <mxCell id="6CnsqeC-LUTwVc9rVep_-29" value="&lt;font color=&quot;#1a1a1a&quot;&gt;Projection&lt;/font&gt;" style="rounded=1;whiteSpace=wrap;html=1;fillColor=#f8cecc;gradientColor=#ea6b66;strokeColor=#b85450;textDirection=vertical-rl;rotation=-180;" parent="1" vertex="1">
          <mxGeometry x="510" y="810" width="40" height="120" as="geometry" />
        </mxCell>
        <mxCell id="6CnsqeC-LUTwVc9rVep_-30" value="&lt;font color=&quot;#1a1a1a&quot;&gt;Projection&lt;/font&gt;" style="rounded=1;whiteSpace=wrap;html=1;fillColor=#f8cecc;gradientColor=#ea6b66;strokeColor=#b85450;textDirection=vertical-rl;rotation=-180;" parent="1" vertex="1">
          <mxGeometry x="510" y="650" width="40" height="120" as="geometry" />
        </mxCell>
        <mxCell id="6CnsqeC-LUTwVc9rVep_-31" value="" style="endArrow=classic;html=1;rounded=1;fontSize=12;startSize=8;endSize=8;curved=0;exitX=1;exitY=0.5;exitDx=0;exitDy=0;entryX=1;entryY=0.5;entryDx=0;entryDy=0;" parent="1" source="6CnsqeC-LUTwVc9rVep_-22" target="Aeha082FOGOlSdF__lET-6" edge="1">
          <mxGeometry width="50" height="50" relative="1" as="geometry">
            <mxPoint x="170" y="790" as="sourcePoint" />
            <mxPoint x="390" y="870" as="targetPoint" />
            <Array as="points" />
          </mxGeometry>
        </mxCell>
        <mxCell id="6CnsqeC-LUTwVc9rVep_-33" value="" style="endArrow=classic;html=1;rounded=1;fontSize=12;startSize=8;endSize=8;curved=0;exitX=1;exitY=0.5;exitDx=0;exitDy=0;entryX=1;entryY=0.5;entryDx=0;entryDy=0;" parent="1" source="6CnsqeC-LUTwVc9rVep_-24" target="Aeha082FOGOlSdF__lET-7" edge="1">
          <mxGeometry width="50" height="50" relative="1" as="geometry">
            <mxPoint x="360" y="630" as="sourcePoint" />
            <mxPoint x="390" y="710" as="targetPoint" />
            <Array as="points" />
          </mxGeometry>
        </mxCell>
        <mxCell id="6CnsqeC-LUTwVc9rVep_-34" value="&lt;font color=&quot;#1a1a1a&quot;&gt;Multimodal&lt;br&gt;&lt;br&gt;Decoder&lt;/font&gt;" style="rounded=1;whiteSpace=wrap;html=1;fillColor=#d5e8d4;strokeColor=#82b366;gradientColor=#97d077;" parent="1" vertex="1">
          <mxGeometry x="770" y="650" width="120" height="440" as="geometry" />
        </mxCell>
        <mxCell id="6CnsqeC-LUTwVc9rVep_-35" value="&lt;font color=&quot;#1a1a1a&quot;&gt;Generated&lt;br&gt;&lt;br&gt;Answer&lt;/font&gt;" style="rounded=1;whiteSpace=wrap;html=1;fillColor=#f5f5f5;strokeColor=#666666;gradientColor=#b3b3b3;" parent="1" vertex="1">
          <mxGeometry x="960" y="810" width="120" height="120" as="geometry" />
        </mxCell>
        <mxCell id="6CnsqeC-LUTwVc9rVep_-36" value="" style="endArrow=classic;html=1;rounded=1;fontSize=12;startSize=8;endSize=8;curved=0;exitX=1;exitY=0.5;exitDx=0;exitDy=0;entryX=1;entryY=0.5;entryDx=0;entryDy=0;" parent="1" source="6CnsqeC-LUTwVc9rVep_-27" target="Aeha082FOGOlSdF__lET-13" edge="1">
          <mxGeometry width="50" height="50" relative="1" as="geometry">
            <mxPoint x="385" y="939.5" as="sourcePoint" />
            <mxPoint x="410" y="1030" as="targetPoint" />
            <Array as="points" />
          </mxGeometry>
        </mxCell>
        <mxCell id="6CnsqeC-LUTwVc9rVep_-37" value="" style="endArrow=classic;html=1;rounded=1;fontSize=12;startSize=8;endSize=8;curved=0;exitX=0;exitY=0.5;exitDx=0;exitDy=0;entryX=0;entryY=0.5;entryDx=0;entryDy=0;" parent="1" source="6CnsqeC-LUTwVc9rVep_-29" target="rmX6A_vhHBQsXo4BwZ8s-4" edge="1">
          <mxGeometry width="50" height="50" relative="1" as="geometry">
            <mxPoint x="450" y="869.5" as="sourcePoint" />
            <mxPoint x="570" y="870" as="targetPoint" />
            <Array as="points" />
          </mxGeometry>
        </mxCell>
        <mxCell id="6CnsqeC-LUTwVc9rVep_-38" value="" style="endArrow=classic;html=1;rounded=1;fontSize=12;startSize=8;endSize=8;curved=0;entryX=0;entryY=0.5;entryDx=0;entryDy=0;exitX=0;exitY=0.5;exitDx=0;exitDy=0;" parent="1" source="6CnsqeC-LUTwVc9rVep_-30" target="rmX6A_vhHBQsXo4BwZ8s-1" edge="1">
          <mxGeometry width="50" height="50" relative="1" as="geometry">
            <mxPoint x="460" y="710" as="sourcePoint" />
            <mxPoint x="565" y="709.7" as="targetPoint" />
            <Array as="points" />
          </mxGeometry>
        </mxCell>
        <mxCell id="6CnsqeC-LUTwVc9rVep_-39" value="" style="endArrow=classic;html=1;rounded=1;fontSize=12;startSize=8;endSize=8;curved=0;exitX=1;exitY=0.5;exitDx=0;exitDy=0;" parent="1" source="6CnsqeC-LUTwVc9rVep_-34" target="6CnsqeC-LUTwVc9rVep_-35" edge="1">
          <mxGeometry width="50" height="50" relative="1" as="geometry">
            <mxPoint x="620" y="870" as="sourcePoint" />
            <mxPoint x="740" y="870" as="targetPoint" />
            <Array as="points" />
          </mxGeometry>
        </mxCell>
        <mxCell id="UFdSs73jD7x_iKg_s8AN-1" value="&lt;div&gt;&lt;font color=&quot;#1a1a1a&quot;&gt;ConvNet&lt;/font&gt;&lt;/div&gt;&lt;font color=&quot;#1a1a1a&quot;&gt;Decoder&lt;/font&gt;" style="rounded=1;whiteSpace=wrap;html=1;fillColor=#d5e8d4;strokeColor=#82b366;gradientColor=#97d077;" parent="1" vertex="1">
          <mxGeometry x="400" y="320" width="120" height="120" as="geometry" />
        </mxCell>
        <mxCell id="UFdSs73jD7x_iKg_s8AN-2" value="" style="endArrow=classic;html=1;rounded=0;fontSize=12;startSize=8;endSize=8;curved=1;exitX=1;exitY=0.5;exitDx=0;exitDy=0;entryX=0;entryY=0.5;entryDx=0;entryDy=0;" parent="1" source="6CnsqeC-LUTwVc9rVep_-7" target="UFdSs73jD7x_iKg_s8AN-1" edge="1">
          <mxGeometry width="50" height="50" relative="1" as="geometry">
            <mxPoint x="170" y="390" as="sourcePoint" />
            <mxPoint x="250" y="390" as="targetPoint" />
          </mxGeometry>
        </mxCell>
        <mxCell id="rmX6A_vhHBQsXo4BwZ8s-1" value="" style="shape=orEllipse;perimeter=ellipsePerimeter;whiteSpace=wrap;html=1;backgroundOutline=1;strokeWidth=2;" parent="1" vertex="1">
          <mxGeometry x="650" y="700" width="20" height="20" as="geometry" />
        </mxCell>
        <mxCell id="rmX6A_vhHBQsXo4BwZ8s-3" style="edgeStyle=orthogonalEdgeStyle;rounded=0;orthogonalLoop=1;jettySize=auto;html=1;exitX=1;exitY=0.5;exitDx=0;exitDy=0;entryX=-0.017;entryY=0.136;entryDx=0;entryDy=0;entryPerimeter=0;" parent="1" source="rmX6A_vhHBQsXo4BwZ8s-1" target="6CnsqeC-LUTwVc9rVep_-34" edge="1">
          <mxGeometry relative="1" as="geometry">
            <mxPoint x="540" y="620" as="sourcePoint" />
            <mxPoint x="720" y="710" as="targetPoint" />
          </mxGeometry>
        </mxCell>
        <mxCell id="rmX6A_vhHBQsXo4BwZ8s-6" style="edgeStyle=orthogonalEdgeStyle;rounded=0;orthogonalLoop=1;jettySize=auto;html=1;exitX=1;exitY=0.5;exitDx=0;exitDy=0;entryX=0;entryY=0.5;entryDx=0;entryDy=0;" parent="1" source="rmX6A_vhHBQsXo4BwZ8s-4" target="6CnsqeC-LUTwVc9rVep_-34" edge="1">
          <mxGeometry relative="1" as="geometry">
            <mxPoint x="650" y="870" as="sourcePoint" />
            <mxPoint x="720" y="870" as="targetPoint" />
          </mxGeometry>
        </mxCell>
        <mxCell id="rmX6A_vhHBQsXo4BwZ8s-4" value="" style="shape=orEllipse;perimeter=ellipsePerimeter;whiteSpace=wrap;html=1;backgroundOutline=1;strokeWidth=2;" parent="1" vertex="1">
          <mxGeometry x="650" y="860" width="20" height="20" as="geometry" />
        </mxCell>
        <mxCell id="Aeha082FOGOlSdF__lET-1" style="edgeStyle=orthogonalEdgeStyle;rounded=0;orthogonalLoop=1;jettySize=auto;html=1;exitX=0.5;exitY=1;exitDx=0;exitDy=0;entryX=0.5;entryY=0;entryDx=0;entryDy=0;" parent="1" source="rmX6A_vhHBQsXo4BwZ8s-7" target="rmX6A_vhHBQsXo4BwZ8s-1" edge="1">
          <mxGeometry relative="1" as="geometry" />
        </mxCell>
        <mxCell id="rmX6A_vhHBQsXo4BwZ8s-7" value="&lt;div&gt;&lt;font style=&quot;color: rgb(26, 26, 26);&quot;&gt;Time Encoding&lt;/font&gt;&lt;/div&gt;&lt;div&gt;&lt;font style=&quot;color: rgb(26, 26, 26);&quot;&gt;&lt;br&gt;&lt;/font&gt;&lt;/div&gt;&lt;i&gt;&lt;font style=&quot;color: rgb(26, 26, 26); font-size: 16px;&quot; face=&quot;Cambria&quot;&gt;T&lt;sub style=&quot;&quot;&gt;ref&lt;/sub&gt;&lt;/font&gt;&lt;/i&gt;" style="rounded=1;whiteSpace=wrap;html=1;fillColor=#fff2cc;gradientColor=#ffd966;strokeColor=#d6b656;" parent="1" vertex="1">
          <mxGeometry x="600" y="570" width="120" height="70" as="geometry" />
        </mxCell>
        <mxCell id="Aeha082FOGOlSdF__lET-3" style="edgeStyle=orthogonalEdgeStyle;rounded=0;orthogonalLoop=1;jettySize=auto;html=1;entryX=0.5;entryY=0;entryDx=0;entryDy=0;" parent="1" target="rmX6A_vhHBQsXo4BwZ8s-4" edge="1">
          <mxGeometry relative="1" as="geometry">
            <mxPoint x="660" y="840" as="sourcePoint" />
          </mxGeometry>
        </mxCell>
        <mxCell id="Aeha082FOGOlSdF__lET-5" value="" style="edgeStyle=orthogonalEdgeStyle;rounded=0;orthogonalLoop=1;jettySize=auto;html=1;" parent="1" source="Aeha082FOGOlSdF__lET-2" target="rmX6A_vhHBQsXo4BwZ8s-4" edge="1">
          <mxGeometry relative="1" as="geometry" />
        </mxCell>
        <mxCell id="Aeha082FOGOlSdF__lET-2" value="&lt;div&gt;&lt;font style=&quot;color: rgb(26, 26, 26);&quot;&gt;Time Encoding&lt;/font&gt;&lt;/div&gt;&lt;div&gt;&lt;font style=&quot;color: rgb(26, 26, 26);&quot;&gt;&lt;br&gt;&lt;/font&gt;&lt;/div&gt;&lt;font style=&quot;color: rgb(26, 26, 26); font-size: 16px;&quot; face=&quot;Cambria&quot;&gt;&lt;i style=&quot;&quot;&gt;T&lt;sub style=&quot;&quot;&gt;main&lt;/sub&gt;&lt;/i&gt;&lt;/font&gt;" style="rounded=1;whiteSpace=wrap;html=1;fillColor=#fff2cc;gradientColor=#ffd966;strokeColor=#d6b656;" parent="1" vertex="1">
          <mxGeometry x="600" y="760" width="120" height="70" as="geometry" />
        </mxCell>
        <mxCell id="Aeha082FOGOlSdF__lET-12" style="edgeStyle=orthogonalEdgeStyle;rounded=0;orthogonalLoop=1;jettySize=auto;html=1;exitX=0;exitY=0.5;exitDx=0;exitDy=0;entryX=1;entryY=0.5;entryDx=0;entryDy=0;" parent="1" source="Aeha082FOGOlSdF__lET-6" target="6CnsqeC-LUTwVc9rVep_-29" edge="1">
          <mxGeometry relative="1" as="geometry" />
        </mxCell>
        <mxCell id="Aeha082FOGOlSdF__lET-6" value="&lt;font color=&quot;#1a1a1a&quot;&gt;Flattening&lt;/font&gt;" style="rounded=1;whiteSpace=wrap;html=1;fillColor=#f8cecc;gradientColor=#ea6b66;strokeColor=#b85450;textDirection=vertical-rl;rotation=-180;" parent="1" vertex="1">
          <mxGeometry x="420" y="810" width="40" height="120" as="geometry" />
        </mxCell>
        <mxCell id="Aeha082FOGOlSdF__lET-10" style="edgeStyle=orthogonalEdgeStyle;rounded=0;orthogonalLoop=1;jettySize=auto;html=1;exitX=0;exitY=0.5;exitDx=0;exitDy=0;entryX=1;entryY=0.5;entryDx=0;entryDy=0;" parent="1" source="Aeha082FOGOlSdF__lET-7" target="6CnsqeC-LUTwVc9rVep_-30" edge="1">
          <mxGeometry relative="1" as="geometry" />
        </mxCell>
        <mxCell id="Aeha082FOGOlSdF__lET-7" value="&lt;font color=&quot;#1a1a1a&quot;&gt;Flattening&lt;/font&gt;" style="rounded=1;whiteSpace=wrap;html=1;fillColor=#f8cecc;gradientColor=#ea6b66;strokeColor=#b85450;textDirection=vertical-rl;rotation=-180;" parent="1" vertex="1">
          <mxGeometry x="420" y="650" width="40" height="120" as="geometry" />
        </mxCell>
        <mxCell id="Aeha082FOGOlSdF__lET-13" value="&lt;font color=&quot;#1a1a1a&quot;&gt;Flattening&lt;/font&gt;" style="rounded=1;whiteSpace=wrap;html=1;fillColor=#f8cecc;gradientColor=#ea6b66;strokeColor=#b85450;textDirection=vertical-rl;rotation=-180;" parent="1" vertex="1">
          <mxGeometry x="420" y="970" width="40" height="120" as="geometry" />
        </mxCell>
      </root>
    </mxGraphModel>
  </diagram>
</mxfile>
